#!OML:ASF I:\golf\golf\golf 2\Subject 1\2002-09-07\Subject1.ASF
:FULLY-SPECIFIED
:DEGREES
414
root -6.00322 18.0681 -2.61679 -163.713 15.3619 -174.942
lowerback -2.4122 8.70805 6.46696
upperback -5.14566 12.5447 3.90362
thorax -3.6008 6.42428 0.454271
lowerneck -16.6967 -7.33167 0.545247
upperneck 9.45729 -9.79675 -1.17199
head 5.45899 -4.84237 -1.36599
rclavicle -8.55892e-014 -3.02153e-014
rhumerus 49.7621 31.8044 -85.1562
rradius 30.7487
rwrist -11.7544
rhand -26.7892 14.9263
rfingers 7.12502
rthumb -0.216528 -15.0533
lclavicle -8.55892e-014 -3.02153e-014
lhumerus 37.7121 -9.79692 92.5709
lradius 32.6043
lwrist 28.9265
lhand -18.177 21.3582
lfingers 7.12502
lthumb -171.901 -128.817
rfemur 2.71506 -8.68891 18.9147
rtibia 26.4421
rfoot 8.65833 -26.8728
rtoes 16.4129
lfemur -28.8785 -12.7419 -11.2094
ltibia 20.1931
lfoot 34.1002 -36.2481
ltoes 34.1318
415
root -5.99676 18.0726 -2.60568 -163.755 15.4287 -175.007
lowerback -2.4887 8.70012 6.40417
upperback -5.07882 12.509 3.89073
thorax -3.49713 6.40817 0.493554
lowerneck -16.5079 -7.21245 0.76034
upperneck 9.16036 -9.63743 -1.52183
head 5.30816 -4.78821 -1.47493
rclavicle -7.26806e-015 4.77083e-014
rhumerus 48.5686 31.4815 -86.4401
rradius 29.9001
rwrist -11.3548
rhand -26.5185 14.996
rfingers 7.12502
rthumb 0.0449294 -14.9838
lclavicle -7.26806e-015 4.77083e-014
lhumerus 36.8805 -9.61336 93.5341
lradius 32.1528
lwrist 29.3369
lhand -19.0446 21.6543
lfingers 7.12502
lthumb -172.738 -128.49
rfemur 2.6767 -8.68012 18.8722
rtibia 26.4666
rfoot 8.78447 -26.8825
rtoes 16.5716
lfemur -28.8487 -12.7986 -11.239
ltibia 20.1518
lfoot 33.6355 -36.6135
ltoes 33.5156
416
root -5.99057 18.0755 -2.59688 -163.788 15.4773 -174.965
lowerback -2.5258 8.70516 6.48757
upperback -5.04081 12.5019 3.87479
thorax -3.41625 6.40179 0.447351
lowerneck -16.533 -7.16316 0.613854
upperneck 9.3467 -9.56666 -1.31837
head 5.38983 -4.74098 -1.39078
rclavicle -6.97113e-014 1.11319e-014
rhumerus 47.3192 31.1332 -87.7109
rradius 29.1522
rwrist -11.1971
rhand -26.4275 14.5081
rfingers 7.12502
rthumb 0.132846 -15.4716
lclavicle -6.97113e-014 1.11319e-014
lhumerus 35.9941 -9.27879 94.6149
lradius 31.7598
lwrist 29.395
lhand -19.5134 21.9233
lfingers 7.12502
lthumb -173.19 -128.206
rfemur 2.68478 -8.65595 18.9353
rtibia 26.4809
rfoot 9.01833 -26.8179
rtoes 16.0172
lfemur -28.7806 -12.7795 -11.1892
ltibia 20.1199
lfoot 33.6165 -36.5725
ltoes 33.8295
417
root -5.98531 18.0785 -2.59035 -163.802 15.6169 -174.991
lowerback -2.5929 8.74911 6.4907
upperback -5.00353 12.5413 3.84037
thorax -3.32955 6.42064 0.429269
lowerneck -16.6138 -7.09723 0.51665
upperneck 9.51631 -9.46512 -1.26806
head 5.46515 -4.68881 -1.3598
rclavicle 8.91922e-014 -1.11319e-014
rhumerus 46.0998 30.7399 -88.8834
rradius 28.3321
rwrist -11.047
rhand -26.6021 14.0617
rfingers 7.12502
rthumb -0.0357935 -15.918
lclavicle 8.91922e-014 -1.11319e-014
lhumerus 35.0928 -8.85731 95.7767
lradius 31.3463
lwrist 29.2923
lhand -19.8062 21.9659
lfingers 7.12502
lthumb -173.473 -128.155
rfemur 2.66921 -8.63862 18.8792
rtibia 26.4853
rfoot 9.13112 -26.7779
rtoes 15.2926
lfemur -28.7395 -12.7521 -11.2306
ltibia 20.1192
lfoot 33.4602 -36.5948
ltoes 34.2413
418
root -5.97939 18.0795 -2.57743 -163.936 15.752 -175.125
lowerback -2.50099 8.79479 6.39652
upperback -4.94975 12.5895 3.79609
thorax -3.32943 6.44056 0.423187
lowerneck -16.7021 -7.102 0.453528
upperneck 9.60779 -9.4588 -1.26435
head 5.51161 -4.68633 -1.35475
rclavicle 1.20724e-013 6.20208e-014
rhumerus 45.024 30.3954 -89.7384
rradius 27.4248
rwrist -10.9634
rhand -26.9716 13.7714
rfingers 7.12502
rthumb -0.392611 -16.208
lclavicle 1.20724e-013 6.20208e-014
lhumerus 34.1875 -8.37815 96.9804
lradius 30.8533
lwrist 28.8873
lhand -19.8852 22.0242
lfingers 7.12502
lthumb -173.549 -128.094
rfemur 2.73458 -8.67329 18.7067
rtibia 26.4948
rfoot 9.53453 -26.6067
rtoes 13.8636
lfemur -28.6347 -12.7449 -11.3971
ltibia 20.1471
lfoot 33.2911 -36.5946
ltoes 34.6236
